<svg width="30" height="30" viewBox="0 0 30 30" fill="none" xmlns="http://www.w3.org/2000/svg">
<path d="M8.4375 16.4062C10.9448 16.4062 12.1523 16.7869 14.3273 17.5697C15.6337 18.0398 16.2863 18.2086 17.3634 18.6408C18.1195 18.9445 18.75 19.2619 18.75 20.3545C18.75 20.887 18.1022 22.1939 16.0116 21.5259C14.8397 21.1514 13.7475 20.8331 13.7475 20.8331L13.6336 21.1753L16.4494 23.2359L20.2411 23.1876C23.8584 20.8036 24.7411 20.1562 25.7812 20.1562C26.558 20.1562 27.1875 20.7858 27.1875 21.5625C27.1875 22.0903 26.9109 22.4048 26.4666 22.7906C26.0222 23.1764 21.6389 26.3142 21.6389 26.3142C21.6389 26.3142 18.3038 27.1589 17.7253 27.353C17.5566 27.4092 17.0203 27.6562 16.4062 27.6562C16.1906 27.6562 15.2025 27.3159 14.7947 27.1303C14.3864 26.9447 8.23688 24.4804 8.23688 24.4804C7.76531 24.2873 7.23656 24.2939 6.76969 24.4964L2.8125 25.7812V17.8289C2.8125 17.8289 6.97312 16.4062 8.4375 16.4062ZM21.3281 2.99951C17.8341 2.99951 15 5.83357 15 9.32764C15 12.8217 17.8341 15.6558 21.3281 15.6558C24.8222 15.6558 27.6562 12.8222 27.6562 9.32764C27.6562 5.83311 24.8222 2.99951 21.3281 2.99951ZM21.7383 12.3187V12.9047H20.9128V12.3351C20.393 12.2826 19.8398 12.0956 19.4381 11.7961L19.8483 10.7728C20.25 11.0756 20.7427 11.2954 21.2597 11.2954C21.8484 11.2954 22.1208 11.0095 22.1208 10.5665C22.1208 10.1733 21.7575 9.99139 21.2264 9.68904C20.5608 9.31217 19.5122 8.99295 19.5122 7.84264C19.5122 7.00357 20.1394 6.48607 20.9128 6.34592V5.75154H21.7383V6.31826C22.2089 6.36232 22.627 6.4917 22.9734 6.75279L22.6678 7.8342C22.2825 7.51498 21.9141 7.38279 21.3553 7.38279C20.8795 7.38279 20.5519 7.54779 20.5519 7.80373C20.5519 8.15576 20.9203 8.33482 21.5452 8.67326C22.5384 9.20436 23.2181 9.70498 23.2181 10.6237C23.2181 11.6362 22.6598 12.1781 21.7383 12.3187Z" fill="#1F271B"/>
</svg>
