<svg width="30" height="30" viewBox="0 0 30 30" fill="none" xmlns="http://www.w3.org/2000/svg">
<path d="M1.875 5.15625V6.09375V24.8438H28.125V5.15625H1.875ZM3.75 7.03125H26.25V22.9688H21.8491L21.861 22.9248L17.4774 21.3309L17.3868 20.3403C19.4665 19.5178 20.9647 17.3681 20.9647 16.9592C20.9656 15.1695 19.9237 8.90625 15 8.90625C10.5262 8.90625 10.4059 14.2745 8.76526 16.3623C8.76526 17.1459 10.5725 19.3012 12.6242 20.2258L12.5226 21.3309L8.13995 22.9248L8.15186 22.9688H3.75V7.03125ZM15.8945 11.7398L16.1929 13.082C16.687 13.082 17.0754 12.8145 17.3373 12.5702C17.5871 13.0702 17.7264 13.7123 17.7264 14.4644V15.5786L17.8958 15.7764C17.8958 15.7764 18.0377 15.9772 18.0258 16.1783C17.9984 16.644 17.7136 16.8411 17.7136 16.8411L17.5406 16.9684L17.4683 17.1707C17.1522 18.0577 16.6487 18.7951 16.1472 19.2892C15.6456 19.7834 15.118 19.9841 15 19.9841C14.882 19.9841 14.3545 19.7834 13.8528 19.2892C13.3512 18.7951 12.8473 18.0578 12.5308 17.1707L12.4585 16.9684L12.2855 16.8411C12.2855 16.8411 12.0007 16.644 11.9733 16.1783C11.9614 15.9772 12.1033 15.7764 12.1033 15.7764L12.2726 15.5786V14.4644C12.2726 14.3655 12.2771 14.2702 12.2818 14.1751C12.8887 13.9488 14.8814 13.1326 15.8945 11.7398Z" fill="#1F271B"/>
</svg>
