<svg width="30" height="30" viewBox="0 0 30 30" fill="none" xmlns="http://www.w3.org/2000/svg">
<path d="M19.2188 2.81787C17.1774 2.81787 15.1367 3.59397 13.5846 5.14606L5.1471 13.5836C2.04293 16.6877 2.04293 21.7486 5.1471 24.8528C8.25128 27.957 13.3122 27.957 16.4163 24.8528L24.8538 16.4153C27.9576 13.3115 27.9575 8.2503 24.8538 5.14606C23.3017 3.59397 21.2601 2.81787 19.2188 2.81787ZM19.2188 4.68097C20.7763 4.68097 22.3343 5.27789 23.5281 6.47174C25.9154 8.85937 25.9153 12.7025 23.5281 15.0896L20.246 18.3718L13.3429 11.4678C13.3429 11.4678 8.6555 15.3111 7.81129 16.1553C6.96707 16.9995 6.56251 18.0324 6.56251 19.1719C6.56251 20.3115 7.55402 22.4459 7.55402 22.4459L6.47279 23.5271C4.08509 21.1394 4.08509 17.2969 6.47279 14.9092L14.9103 6.47174C16.1041 5.27789 17.6612 4.68097 19.2188 4.68097Z" fill="#F8F6F2"/>
</svg>
