<svg width="30" height="30" viewBox="0 0 30 30" fill="none" xmlns="http://www.w3.org/2000/svg">
<path d="M26.333 7.89C26.0766 5.67234 24.3277 3.92344 22.11 3.66703C20.332 3.46125 17.9362 3.28125 15 3.28125C12.0638 3.28125 9.66797 3.46125 7.89 3.66703C5.67234 3.92344 3.92344 5.67234 3.66703 7.89C3.46125 9.66797 3.28125 12.0638 3.28125 15C3.28125 17.9362 3.46125 20.332 3.66703 22.11C3.92344 24.3277 5.67234 26.0766 7.89 26.333C9.66797 26.5387 12.0638 26.7188 15 26.7188C17.9362 26.7188 20.332 26.5387 22.11 26.333C24.3277 26.0766 26.0766 24.3277 26.333 22.11C26.5387 20.332 26.7188 17.9362 26.7188 15C26.7188 12.0638 26.5387 9.66797 26.333 7.89ZM21.0938 16.6927L16.9561 16.9561L16.6927 21.0938H13.3073L13.0439 16.9561L8.90625 16.6927V13.3073L13.0439 13.0439L13.3073 8.90625H16.6927L16.9561 13.0439L21.0938 13.3073V16.6927Z" fill="#1F271B"/>
</svg>
