<svg width="30" height="30" viewBox="0 0 30 30" fill="none" xmlns="http://www.w3.org/2000/svg">
<path d="M9.84375 1.40625C9.06703 1.40625 8.4375 2.03578 8.4375 2.8125C8.4375 3.58922 9.06703 4.21875 9.84375 4.21875H20.1562C20.933 4.21875 21.5625 3.58922 21.5625 2.8125C21.5625 2.03578 20.933 1.40625 20.1562 1.40625H9.84375ZM10.3125 5.23956V23.3459C10.3125 26.24 12.4153 28.5938 15 28.5938C17.5847 28.5938 19.6875 26.2395 19.6875 23.3459V5.57465L17.8125 5.50781V8.4375H13.5938V24.375C13.5938 25.3474 14.087 26.2036 14.837 26.7087C13.3619 26.6067 12.1875 25.1396 12.1875 23.3459V5.3064L10.3125 5.23956ZM15.2344 10.3125C15.6225 10.3125 15.9375 10.6275 15.9375 11.0156C15.9375 11.4038 15.6225 11.7188 15.2344 11.7188C14.8462 11.7188 14.5312 11.4038 14.5312 11.0156C14.5312 10.6275 14.8462 10.3125 15.2344 10.3125ZM16.6406 20.1562C17.0288 20.1562 17.3438 20.4712 17.3438 20.8594C17.3438 21.2475 17.0288 21.5625 16.6406 21.5625C16.2525 21.5625 15.9375 21.2475 15.9375 20.8594C15.9375 20.4712 16.2525 20.1562 16.6406 20.1562ZM15.4688 22.9688C15.7275 22.9688 15.9375 23.1788 15.9375 23.4375C15.9375 23.6962 15.7275 23.9062 15.4688 23.9062C15.21 23.9062 15 23.6962 15 23.4375C15 23.1788 15.21 22.9688 15.4688 22.9688Z" fill="#F8F6F2"/>
</svg>
