<svg width="30" height="30" viewBox="0 0 30 30" fill="none" xmlns="http://www.w3.org/2000/svg">
<path d="M3.28125 2.8125V9.375H4.6875L4.21875 11.4581L7.03125 9.375H13.5938L15.9375 2.8125H3.28125ZM26.7188 4.21875H16.875L15.4688 10.7812H22.9688L25.7812 13.125L25.3125 10.7812H26.7188V4.21875ZM18.75 15.5273C18.75 13.9416 20.0091 12.6562 21.5625 12.6562C23.1159 12.6562 24.375 13.9416 24.375 15.5273C24.375 15.5967 24.375 15.8681 24.375 15.9375C24.375 17.5233 23.1698 19.2188 21.5625 19.2188C19.9552 19.2188 18.75 17.5233 18.75 15.9375C18.75 15.8681 18.75 15.5967 18.75 15.5273ZM21.562 27.1875C19.0894 27.1875 16.8914 26.0302 15.4688 24.2325L15.6984 23.0625C15.8039 22.5248 16.1887 22.0884 16.7091 21.9136C17.7136 21.577 19.5117 21.0938 21.563 21.0938C23.6152 21.0938 25.4147 21.5775 26.4188 21.9141C26.9381 22.0884 27.3225 22.5258 27.4275 23.0625L27.6562 24.2306C26.2336 26.0292 24.0352 27.1875 21.562 27.1875ZM5.625 15.5273C5.625 13.9416 6.87938 12.6562 8.42719 12.6562C9.975 12.6562 11.2294 13.9416 11.2294 15.5273C11.2294 15.5967 11.2294 15.8681 11.2294 15.9375C11.2294 17.5233 10.0284 19.2188 8.42719 19.2188C6.82594 19.2188 5.625 17.5233 5.625 15.9375C5.625 15.8681 5.625 15.5967 5.625 15.5273ZM8.43703 27.1875C5.96438 27.1875 3.76641 26.0302 2.34375 24.2325L2.57344 23.0625C2.67891 22.5248 3.06375 22.0884 3.58406 21.9136C4.58859 21.577 6.38672 21.0938 8.43797 21.0938C10.4902 21.0938 12.2897 21.5775 13.2938 21.9141C13.8131 22.0884 14.1975 22.5258 14.3025 23.0625L14.5312 24.2306C13.1086 26.0292 10.9102 27.1875 8.43703 27.1875Z" fill="#F8F6F2"/>
</svg>
