<svg width="30" height="30" viewBox="0 0 30 30" fill="none" xmlns="http://www.w3.org/2000/svg">
<path d="M5.625 2.34375C4.07437 2.34375 2.8125 3.60562 2.8125 5.15625V13.5938C2.8125 14.9845 3.82828 16.1396 5.15625 16.3641V22.9688C5.15625 25.0364 6.83859 26.7188 8.90625 26.7188H21.5625C23.6302 26.7188 25.3125 25.0364 25.3125 22.9688V19.4321C26.1398 18.9619 26.7188 17.8898 26.7188 16.6406C26.7188 14.9578 25.6692 13.5938 24.375 13.5938C23.0808 13.5938 22.0312 14.9578 22.0312 16.6406C22.0312 17.8898 22.6102 18.9614 23.4375 19.4321V22.9688C23.4375 24.0028 22.5966 24.8438 21.5625 24.8438H8.90625C7.87219 24.8438 7.03125 24.0028 7.03125 22.9688V16.4062H8.90625V17.1204C8.90625 19.9554 10.9598 22.9688 14.7656 22.9688C18.5714 22.9688 20.625 19.9554 20.625 17.1204V13.0353C23.0212 12.5928 24.8438 10.4916 24.8438 7.96875C24.8438 5.12578 22.5305 2.8125 19.6875 2.8125C16.8445 2.8125 14.5312 5.12578 14.5312 7.96875C14.5312 10.4916 16.3538 12.5928 18.75 13.0353V17.1204C18.75 19.0947 17.3813 21.0938 14.7656 21.0938C12.15 21.0938 10.7812 19.0947 10.7812 17.1204V16.3641C12.1092 16.1401 13.125 14.9845 13.125 13.5938V5.15625C13.125 3.60562 11.8631 2.34375 10.3125 2.34375H5.625ZM5.625 4.21875H10.3125C10.8305 4.21875 11.25 4.63828 11.25 5.15625V5.625C11.25 5.36625 11.04 5.15625 10.7812 5.15625H6.09375C5.835 5.15625 5.625 5.36625 5.625 5.625V14.0625C5.625 14.3212 5.835 14.5312 6.09375 14.5312H5.625C5.10703 14.5312 4.6875 14.1117 4.6875 13.5938V5.15625C4.6875 4.63828 5.10703 4.21875 5.625 4.21875ZM19.6875 4.21875C21.7584 4.21875 23.4375 5.89781 23.4375 7.96875C23.4375 10.0397 21.7584 11.7188 19.6875 11.7188C17.6166 11.7188 15.9375 10.0397 15.9375 7.96875C15.9375 5.89781 17.6166 4.21875 19.6875 4.21875ZM19.2188 4.6875L19.4531 5.625H19.9219L20.1562 4.6875H19.2188ZM17.699 5.31738L17.0361 5.98022L17.8647 6.47736L18.1961 6.14594L17.699 5.31738ZM21.676 5.31738L21.1789 6.14594L21.5103 6.47736L22.3389 5.98022L21.676 5.31738ZM20.8594 6.5625L19.9603 7.07611C19.8736 7.04939 19.7831 7.03125 19.6875 7.03125C19.1695 7.03125 18.75 7.45078 18.75 7.96875C18.75 8.48672 19.1695 8.90625 19.6875 8.90625C20.2055 8.90625 20.625 8.48672 20.625 7.96875C20.625 7.87313 20.6069 7.78264 20.5801 7.69592L21.0938 6.79688L20.8594 6.5625ZM16.4062 7.5V8.4375L17.3438 8.20312V7.73438L16.4062 7.5ZM22.9688 7.5L22.0312 7.73438V8.20312L22.9688 8.4375V7.5ZM17.8647 9.46014L17.0361 9.95728L17.699 10.6201L18.1961 9.79156L17.8647 9.46014ZM21.5103 9.46014L21.1789 9.79156L21.676 10.6201L22.3389 9.95728L21.5103 9.46014ZM19.4531 10.3125L19.2188 11.25H20.1562L19.9219 10.3125H19.4531Z" fill="#1F271B"/>
</svg>
