<svg width="30" height="30" viewBox="0 0 30 30" fill="none" xmlns="http://www.w3.org/2000/svg">
<path d="M14.5312 21.5625H12.1012C11.9076 22.1076 11.3924 22.5 10.7812 22.5C10.0045 22.5 9.37492 21.8704 9.37492 21.0937C9.37492 20.317 10.0045 19.6875 10.7812 19.6875C11.3924 19.6875 11.9076 20.0798 12.1012 20.625H14.5312V12.1875H11.429L10.483 10.2951C10.4263 10.3022 10.371 10.3125 10.3124 10.3125C9.5357 10.3125 8.90617 9.68294 8.90617 8.90622C8.90617 8.1295 9.5357 7.49997 10.3124 7.49997C11.0891 7.49997 11.7187 8.1295 11.7187 8.90622C11.7187 9.28497 11.5673 9.62763 11.3235 9.88028L12.0084 11.25H14.5312V3.24091C12.1935 1.94435 9.2207 3.84372 8.39523 5.59169C7.8468 5.91981 6.4218 6.79638 6.31867 8.53544C5.09992 9.45888 4.42023 10.4386 4.49992 13.4854C4.00398 14.0203 3.47617 14.6737 3.32617 15.4687H6.17992C6.37352 14.9236 6.88867 14.5312 7.49992 14.5312C8.27664 14.5312 8.90617 15.1608 8.90617 15.9375C8.90617 16.7142 8.27664 17.3437 7.49992 17.3437C6.88867 17.3437 6.37352 16.9514 6.17992 16.4062H3.33789C3.4443 16.92 3.71852 17.4811 4.2468 18.0979C3.79211 19.8464 4.67805 21.5058 5.92023 22.6073C6.32805 24.1495 8.20773 25.7386 9.78742 25.8558C10.8093 27.5133 13.1868 27.4458 14.5312 26.5092V21.5625ZM26.7187 16.5698C26.7187 14.3058 25.4859 13.0167 25.4859 13.0167C25.8848 9.67919 25.063 7.99075 22.6696 6.56247H19.2187V8.05497C19.7638 8.24856 20.1562 8.76372 20.1562 9.37497C20.1562 10.1517 19.5266 10.7812 18.7499 10.7812C17.9732 10.7812 17.3437 10.1517 17.3437 9.37497C17.3437 8.76372 17.736 8.24856 18.2812 8.05497V5.62497H21.8652C20.4435 3.69044 17.504 2.05403 15.4687 3.21466V15.4687H19.108L20.6423 14.7018C20.6352 14.6451 20.6249 14.5898 20.6249 14.5312C20.6249 13.7545 21.2545 13.125 22.0312 13.125C22.8079 13.125 23.4374 13.7545 23.4374 14.5312C23.4374 15.3079 22.8079 15.9375 22.0312 15.9375C21.6524 15.9375 21.3098 15.7861 21.0571 15.5423L19.3298 16.4062H15.4687V26.5467C16.4938 27.2906 18.1105 27.3909 19.2187 26.8134V22.4142C18.6735 22.2206 18.2812 21.7054 18.2812 21.0942C18.2812 20.3175 18.9107 19.6879 19.6874 19.6879C20.4641 19.6879 21.0937 20.3175 21.0937 21.0942C21.0937 21.7054 20.7013 22.2206 20.1562 22.4142V25.9312C20.1707 25.9054 20.1895 25.8825 20.203 25.8558C21.778 25.7386 23.8312 24.2151 24.239 22.6729C24.928 21.3417 26.1937 19.8417 25.739 18.0979C25.739 18.0979 26.7187 17.9011 26.7187 16.5698Z" fill="#F8F6F2"/>
</svg>
