<svg width="30" height="30" viewBox="0 0 30 30" fill="none" xmlns="http://www.w3.org/2000/svg">
<path d="M15 2.8125C8.26922 2.8125 2.8125 8.26922 2.8125 15C2.8125 17.5174 3.57653 19.8566 4.88434 21.7987L3.75 27.1875L9.64142 25.947C11.2589 26.7403 13.0769 27.1875 15 27.1875C21.7308 27.1875 27.1875 21.7308 27.1875 15C27.1875 8.26922 21.7308 2.8125 15 2.8125ZM15.1126 8.12622C17.2525 8.12622 18.6978 9.43662 18.6978 11.749C18.6978 13.4257 17.6767 14.4272 16.6168 15.4102C15.6526 16.2966 15.672 16.9519 15.6143 18.2428H13.5324V18.0505C13.5324 16.3546 14.1113 15.0056 15.1328 14.0616C16.2113 13.0594 16.5189 12.7704 16.5189 11.749C16.5189 10.8049 15.9807 10.2466 15.0742 10.2466C13.9768 10.2466 13.0699 10.5737 12.3953 11.4212L11.3562 9.70642C12.184 8.60814 13.4167 8.12622 15.1126 8.12622ZM14.5926 19.8294C15.2671 19.8294 15.7297 20.4463 15.7297 21.2366C15.7297 21.9875 15.2671 22.6236 14.5926 22.6236C13.9565 22.6236 13.4171 21.988 13.4171 21.2366C13.4171 20.4463 13.9565 19.8294 14.5926 19.8294Z" fill="#1F271B"/>
</svg>
