<svg width="30" height="30" viewBox="0 0 30 30" fill="none" xmlns="http://www.w3.org/2000/svg">
<path d="M20.625 2.8125V9.375H27.1875V2.8125H20.625ZM17.3438 5.15625C15.2761 5.15625 13.5938 6.83859 13.5938 8.90625V14.0625H9.375V10.7812H2.8125V19.2188H9.375V15.9375H13.5938V21.0938C13.5938 23.1614 15.2761 24.8438 17.3438 24.8438H19.2188V22.9688H17.3438C16.3097 22.9688 15.4688 22.1278 15.4688 21.0938V15.9375H19.0073L18.9615 14.0625H15.4688V8.90625C15.4688 7.87219 16.3097 7.03125 17.3438 7.03125H18.75V5.15625H17.3438ZM20.625 11.7188V18.2812H27.1875V11.7188H20.625ZM20.625 20.625V27.1875H27.1875V20.625H20.625Z" fill="#F8F6F2"/>
</svg>
