<svg width="30" height="30" viewBox="0 0 30 30" fill="none" xmlns="http://www.w3.org/2000/svg">
<path d="M15 1.875C8.46281 1.875 7.03125 5.93531 7.03125 7.5V10.3125H5.15625C4.12031 10.3125 3.28125 11.1516 3.28125 12.1875V22.9688H26.7188V12.1875C26.7188 11.1516 25.8797 10.3125 24.8438 10.3125H22.9688V7.5C22.9688 5.93531 21.5372 1.875 15 1.875ZM15 3.75C19.9739 3.75 21.0938 6.52734 21.0938 7.5V10.3125H8.90625V7.5C8.90625 6.52734 10.0261 3.75 15 3.75ZM15 12.6562C17.3297 12.6562 19.2188 14.5453 19.2188 16.875C19.2188 19.2047 17.3297 21.0938 15 21.0938C12.6703 21.0938 10.7812 19.2047 10.7812 16.875C10.7812 14.5453 12.6703 12.6562 15 12.6562ZM15 14.0625C13.4475 14.0625 12.1875 15.3225 12.1875 16.875C12.1875 18.4275 13.4475 19.6875 15 19.6875C16.5525 19.6875 17.8125 18.4275 17.8125 16.875H16.1252L15.5621 16.0309L16.4346 14.4617C16.0128 14.2085 15.5231 14.0625 15 14.0625ZM2.8125 23.9062V24.375C2.8125 25.4105 3.65203 26.25 4.6875 26.25H25.3125C26.348 26.25 27.1875 25.4105 27.1875 24.375L2.8125 23.9062Z" fill="#1F271B"/>
</svg>
