<svg width="30" height="30" viewBox="0 0 30 30" fill="none" xmlns="http://www.w3.org/2000/svg">
<path d="M23.9062 4.21875V5.22034C22.4573 5.46343 21.2732 6.41184 21.2732 7.97607C21.2732 10.0761 23.193 10.6607 24.408 11.3507C25.383 11.9057 26.0431 12.416 26.0431 13.136C26.0431 13.946 25.5475 14.4708 24.4675 14.4708C23.5225 14.4708 22.6225 14.0664 21.8875 13.5114L21.1377 15.3864C21.8905 15.9481 22.9365 16.2899 23.9062 16.3797V17.3438H25.7812V16.2497C27.202 15.8967 28.0518 14.9266 28.0518 13.2413C28.0518 11.5613 26.8071 10.4654 24.9921 9.49036C23.8521 8.87536 23.1766 8.546 23.1766 7.901C23.1766 7.436 23.7774 7.13562 24.6469 7.13562C25.6669 7.13562 26.3415 7.37551 27.0465 7.96051L27.6022 5.98114C27.0797 5.58655 26.4644 5.3561 25.7812 5.24323V4.21875H23.9062ZM3.28125 7.03125V8.05298C2.26371 8.27361 1.45294 8.96494 1.45294 10.0845C1.45294 11.6595 2.89277 12.0985 3.80402 12.616C4.53527 13.0322 5.03082 13.4136 5.03082 13.9536C5.03082 14.5611 4.65979 14.9551 3.84979 14.9551C3.14057 14.9551 2.46517 14.6509 1.91345 14.2346L1.35132 15.6409C1.87861 16.0341 2.59665 16.2832 3.28125 16.3696V17.3438H4.6875V16.3138C5.83782 16.0794 6.53686 15.3509 6.53686 14.0323C6.53686 12.7723 5.6038 11.9515 4.24255 11.2198C3.38755 10.7585 2.88116 10.5115 2.88116 10.0278C2.88116 9.67902 3.33049 9.45374 3.98346 9.45374C4.74846 9.45374 5.25555 9.63388 5.7843 10.0726L6.19995 8.58765C5.77127 8.26386 5.25875 8.08901 4.6875 8.01453V7.03125H3.28125ZM13.125 7.03125V8.05298C12.1077 8.27389 11.2967 8.96599 11.2967 10.0845C11.2967 11.6595 12.7365 12.0985 13.6478 12.616C14.379 13.0322 14.8746 13.4136 14.8746 13.9536C14.8746 14.5611 14.5035 14.9551 13.6935 14.9551C12.9843 14.9551 12.3089 14.6509 11.7572 14.2346L11.1951 15.6409C11.7221 16.0339 12.4405 16.2819 13.125 16.3687V17.3438H14.5312V16.3147C15.6816 16.0803 16.3815 15.3509 16.3815 14.0323C16.3815 12.7723 15.4476 11.9524 14.0863 11.2207C13.2313 10.7595 12.7249 10.5115 12.7249 10.0278C12.7249 9.67902 13.1752 9.45465 13.8281 9.45465C14.5931 9.45465 15.0993 9.63388 15.6281 10.0726L16.0446 8.58765C15.6159 8.26385 15.1025 8.08991 14.5312 8.01544V7.03125H13.125ZM23.9062 19.2188V21.59L18.9606 21.6888C18.8308 21.505 18.6588 21.3551 18.459 21.2515C18.2592 21.148 18.0375 21.0939 17.8125 21.0938C17.5779 21.0938 17.347 21.1525 17.1409 21.2646C16.9347 21.3767 16.7599 21.5386 16.6324 21.7355L11.5512 21.8372C11.4313 21.6128 11.2528 21.4251 11.0346 21.2942C10.8165 21.1633 10.5669 21.094 10.3125 21.0938C10.0483 21.0939 9.78955 21.1684 9.56578 21.3088C9.342 21.4491 9.1623 21.6497 9.04724 21.8875L4.11987 21.9864C4.01675 21.7236 3.8369 21.4978 3.60372 21.3386C3.37055 21.1794 3.09484 21.0941 2.8125 21.0938C2.43954 21.0938 2.08185 21.2419 1.81813 21.5056C1.55441 21.7694 1.40625 22.127 1.40625 22.5C1.40625 22.873 1.55441 23.2306 1.81813 23.4944C2.08185 23.7581 2.43954 23.9062 2.8125 23.9062C3.09516 23.9063 3.37126 23.8211 3.6048 23.6619C3.83833 23.5027 4.01847 23.2767 4.1217 23.0136L9.04816 23.1125C9.16314 23.3501 9.34271 23.5506 9.5663 23.691C9.7899 23.8314 10.0485 23.906 10.3125 23.9062C10.5671 23.9061 10.8168 23.8369 11.0351 23.706C11.2535 23.5751 11.4321 23.3874 11.5521 23.1628L16.6342 23.2645C16.7616 23.4611 16.9361 23.6229 17.1419 23.7349C17.3477 23.847 17.5782 23.9059 17.8125 23.9062C18.0372 23.9059 18.2585 23.8516 18.458 23.7481C18.6574 23.6445 18.8291 23.4947 18.9587 23.3112L23.9062 23.41V25.7812L29.0625 22.5L23.9062 19.2188Z" fill="#F8F6F2"/>
</svg>
